<svg xmlns="http://www.w3.org/2000/svg" viewBox="0 0 140.49 139"><defs><style>.cls-1{fill:#1b1c28;}.cls-2{fill:#080d28;}.cls-3{fill:#87530e;}</style></defs><title>Asset 2</title><g id="Layer_2" data-name="Layer 2"><g id="Layer_1-2" data-name="Layer 1"><path class="cls-1" d="M140.46,65.69v.07c0-.23,0-.45-.05-.67C140.43,65.29,140.45,65.49,140.46,65.69Z"/><path class="cls-1" d="M140.49,66.5c0,12.33-15.67,22.75-38.91,27.72-1.39.3-2.79.57-4.23.83a155.22,155.22,0,0,1-27.1,2.3q-3.33,0-6.56-.13l-.51,0-.15-1c-.12-.78-.23-1.56-.33-2.35l-.09-.67.42,0q3.56.16,7.22.17l2.56,0h.78c.78,0,1.56,0,2.33-.06l.36,0c.92,0,1.84-.08,2.75-.13s1.85-.11,2.76-.18h.1c1-.07,1.9-.15,2.83-.24s1.86-.18,2.78-.29,1.83-.21,2.74-.34,1.68-.22,2.49-.35c1.09-.16,2.15-.34,3.2-.53L97,91l.53-.1.52-.09.12,0q1-.18,1.92-.39l.61-.13.77-.17.76-.17.26-.06.25-.06.77-.18c.71-.17,1.39-.35,2.07-.53s1.58-.42,2.34-.64l.36-.1,1.92-.58,1.88-.61c.84-.28,1.65-.57,2.44-.86s1.55-.59,2.29-.89l.8-.33.93-.4A55.06,55.06,0,0,0,125,81.39l.88-.54A33.68,33.68,0,0,0,131,77c.19-.17.37-.35.55-.53a2.23,2.23,0,0,0,.27-.26c.2-.2.4-.41.58-.61s.38-.41.55-.61a17.32,17.32,0,0,0,1.82-2.54c.13-.21.24-.42.35-.64s.11-.21.16-.32h0l-.14.12h0c-.3.25-.62.51-1,.75-.64.5-1.32,1-2,1.46-.41.28-.84.56-1.27.83l-.27.16c-.5.31-1,.62-1.55.92-.28.16-.57.33-.86.48-.59.33-1.18.64-1.79.94l-.92.46c-.33.17-.68.33-1,.49l-.89.4c-1.3.59-2.66,1.14-4.05,1.67l-1.06.4c-1.07.39-2.17.77-3.29,1.13-.42.14-.85.28-1.27.4-.72.23-1.44.44-2.18.65s-1.57.44-2.37.65-1.41.37-2.12.54l-.46.11c-.78.19-1.56.37-2.36.54l-1.57.32h0l-.92.19-.29.05c-.65.13-1.31.26-2,.37-.32.07-.64.12-1,.17s-.78.14-1.19.2l-1.63.26c-.72.12-1.44.22-2.17.32l-2,.26c-1.13.14-2.28.28-3.44.39-1,.1-1.89.19-2.85.27s-1.85.15-2.78.21l-.34,0c-.81.06-1.62.11-2.45.15l-.46,0-1.77.08c-.55,0-1.12,0-1.67.06L73.69,88c-1,0-2,0-3,0s-2.06,0-3.09,0-2,0-3.07-.08l-2.2-.09-.32,0-.09-1c-.1-1-.18-2-.26-3l.26,0c1.23.06,2.47.12,3.73.15,1.66.05,3.35.08,5,.08,1.91,0,3.8,0,5.68-.09,1.36,0,2.71-.11,4-.2s2.7-.16,4-.27l.24,0c1.48-.13,3-.27,4.42-.44l1-.11c1.57-.19,3.13-.4,4.67-.63l1.4-.22c.56-.08,1.1-.17,1.64-.27s.87-.15,1.29-.24c.59-.09,1.17-.21,1.76-.33s1.2-.23,1.8-.36a5.41,5.41,0,0,0,.55-.12l1.46-.32c.69-.15,1.36-.32,2-.48l.39-.1,2-.52.19,0c.64-.17,1.25-.35,1.87-.53,1.55-.45,3-.92,4.5-1.43.67-.23,1.33-.46,2-.71,1.31-.49,2.57-1,3.79-1.53l.9-.4c1.18-.53,2.32-1.09,3.4-1.67.54-.29,1.07-.58,1.59-.88l.84-.5.66-.41a34.53,34.53,0,0,0,4.54-3.37c.38-.33.73-.66,1.08-1s.41-.41.59-.62.59-.63.85-1l.43-.53a3.58,3.58,0,0,0-.14-.65,3.75,3.75,0,0,0-.16-.64,13.18,13.18,0,0,0-.45-1.28,4.42,4.42,0,0,0-.29-.63c-.06-.14-.13-.28-.2-.41s-.21-.4-.33-.6h0a6.18,6.18,0,0,0-.4-.64c-.14-.22-.29-.45-.45-.67a7.25,7.25,0,0,0-.49-.64c-.16-.21-.33-.41-.5-.62s-.34-.4-.53-.59-.27-.29-.41-.43a4.36,4.36,0,0,0-.43-.43c-4.35-4.24-11.36-8-20.1-10.83V41.35c13.31,4.17,23,10.34,27,17.6l.37.71.4.85c.12.28.23.57.34.86a17.82,17.82,0,0,1,.6,2c.05.21.09.41.12.62l.06.33c0,.25.07.5.09.75h0c0,.22,0,.44.05.67h0C140.48,66,140.49,66.25,140.49,66.5Z"/><polygon class="cls-1" points="135.23 71.5 135.24 71.5 135.23 71.51 135.23 71.5"/><path class="cls-1" d="M135.23,71.51l-.14.11.14-.12Z"/><path class="cls-1" d="M104.38,84.61c-.52.12-1,.23-1.57.33h0Z"/><path class="cls-2" d="M103.84,72.65a1.76,1.76,0,0,1-.4.55,2,2,0,0,1-.66.42,1.92,1.92,0,0,0,.7-.54Z"/><path class="cls-1" d="M102.15,69l-.28-.29-.23.29Zm-49,18.24c-.16-1.33-.3-2.69-.43-4.07-1-.1-.93-.21-1.9-.33l-1.14-.15-.26,0c-.33-4.36-.5-8.77-.5-13.16a169.56,169.56,0,0,1,1.93-25.62v0c.21-1.39.44-2.76.7-4.11h0C55.6,17.47,64.25,0,76.32,0a12.21,12.21,0,0,1,2.44.27c10.39,2.17,18.92,18.6,22.77,41.5,0,0,0,0,0,.07.23,1.39.44,2.8.64,4.23v0a167.64,167.64,0,0,1,1.53,20.4l3.33-4a2,2,0,0,1,2.85-.27,2,2,0,0,1,.27,2.81l-6.32,7.61-.36.43a1.92,1.92,0,0,1-.7.54h0a2,2,0,0,1-.72.13,2,2,0,0,1-1.45-.62l-.49-.49v0l-6.78-7a2,2,0,0,1,0-2.83,2,2,0,0,1,2.86.06l3.46,3.56A161.46,161.46,0,0,0,97.94,45.2h0c-.22-1.43-.45-2.83-.7-4.2,0,0,0,0,0-.06-3.52-19.5-10.44-34-18.46-36.52a5.84,5.84,0,0,0-.48.39c-.16.13-.31.27-.47.42l-.48.45a36.71,36.71,0,0,0-7.22,11.41q-.56,1.29-1.08,2.67c0,.05-.05.11-.07.17-.33.88-.67,1.78-1,2.71a.93.93,0,0,1,0,.13c-.23.67-.45,1.35-.67,2-.54,1.74-1.06,3.55-1.54,5.43,0,0,0,0,0,0-.2.75-.4,1.51-.57,2.28-.34,1.48-.67,3-1,4.54,0,.13,0,.26-.08.39-.07.42-.16.85-.23,1.28h0c-.09.51-.18,1-.28,1.53s-.17,1-.25,1.55c-.06.32-.11.64-.16,1-.11.7-.21,1.41-.31,2.13s-.2,1.4-.29,2.11c-.2,1.49-.37,3-.52,4.54-.06.58-.12,1.16-.17,1.75-.08.89-.16,1.79-.23,2.69s-.12,1.64-.17,2.47-.11,1.87-.15,2.82-.08,1.89-.11,2.84,0,1.62-.06,2.43c0,1.11,0,2.22,0,3.34,0,1.89,0,3.77.08,5.63,0,1.41.1,2.8.18,4.18,0,.45,0,.9.07,1.35q.08,1.36.18,2.7c-.84,0-1.68-.1-2.5-.15l-1.34-.1h-.24c0-.71-.09-1.42-.13-2.13-.06-.88-.1-1.76-.14-2.65s-.08-1.94-.11-2.91c0-.69,0-1.39,0-2.08,0-.43,0-.87,0-1.3,0-.85,0-1.7,0-2.55s0-1.77,0-2.65,0-1.54,0-2.3c0-.14,0-.29,0-.43,0-.72,0-1.45.08-2.16,0-.21,0-.42,0-.62,0-.57,0-1.13.08-1.68q0-.59.06-1.14c0-.68.08-1.35.13-2,.05-.85.12-1.69.19-2.53.29-3.47.67-6.85,1.13-10.12.07-.41.13-.82.19-1.22v0c.05-.3.09-.59.14-.88.11-.7.22-1.4.34-2.09.06-.37.12-.73.19-1.09s.09-.52.15-.78c.08-.45.16-.9.25-1.35s.18-.94.28-1.4c.3-1.48.62-2.92,1-4.33.13-.56.27-1.12.43-1.67s.26-1,.4-1.55.29-1.07.44-1.6.28-.94.41-1.4c.38-1.27.79-2.5,1.2-3.69.2-.58.41-1.15.61-1.71a.42.42,0,0,0,0-.1c.22-.6.44-1.18.68-1.76L66.26,16c.25-.55.48-1.09.73-1.62a51.8,51.8,0,0,1,3.1-5.82l.82-1.27,0,0L71.76,6c.29-.39.58-.76.87-1.12-6.83,3.36-13.45,15.81-17,34.38q-.37,2-.72,4.08v0A167.11,167.11,0,0,0,53,69.5c0,5.86.27,11.43.77,16.67,0,.33.06.67.1,1Z"/><path class="cls-1" d="M102.48,89.83l-.26.06-.76.17.76-.18Z"/><polygon class="cls-2" points="101.87 68.71 102.15 69 101.64 69 101.87 68.71"/><path class="cls-2" d="M100.64,73.35a1.84,1.84,0,0,1-.55-.7l.49.49a2,2,0,0,0,1.45.62,2,2,0,0,0,.72-.13,2,2,0,0,1-2.11-.28Z"/><path class="cls-1" d="M98.16,90.75l-.12,0-.52.09.52-.1Z"/><path class="cls-3" d="M71.42,133.39C65,129.23,59,117.17,55.63,99.7c-.19-1-.38-2-.55-3l.55,0q-.39-2-.72-4.11l-.45,0c-.11-.76-.21-1.52-.31-2.3-.12-1-.23-2-.33-3.07,0-.33-.07-.67-.1-1C53.22,80.93,53,75.36,53,69.5a167.11,167.11,0,0,1,2-26.09v0q.35-2.09.72-4.08c3.55-18.57,10.17-31,17-34.38-.29.36-.58.73-.87,1.12L70.93,7.2l0,0-.82,1.27A51.8,51.8,0,0,0,67,14.33c-.25.53-.48,1.07-.73,1.62l-.69,1.69c-.24.58-.46,1.16-.68,1.76a.42.42,0,0,1,0,.1c-.2.56-.41,1.13-.61,1.71-.41,1.19-.82,2.42-1.2,3.69-.13.46-.27.93-.41,1.4s-.3,1.06-.44,1.6-.28,1-.4,1.55-.3,1.11-.43,1.67c-.34,1.41-.66,2.85-1,4.33-.1.46-.19.93-.28,1.4s-.17.9-.25,1.35q-.09.39-.15.78c-.07.36-.13.72-.19,1.09-.12.69-.23,1.39-.34,2.09,0,.29-.09.58-.14.88v0c-.06.4-.12.81-.19,1.22-.46,3.27-.84,6.65-1.13,10.12-.07.84-.14,1.68-.19,2.53,0,.67-.09,1.34-.13,2q0,.55-.06,1.14c0,.55-.06,1.11-.08,1.68,0,.2,0,.41,0,.62,0,.71-.06,1.44-.08,2.16,0,.14,0,.29,0,.43,0,.76,0,1.53,0,2.3s0,1.76,0,2.65,0,1.7,0,2.55c0,.43,0,.87,0,1.3,0,.69,0,1.39,0,2.08,0,1,.06,2,.11,2.91s.08,1.77.14,2.65c0,.71.08,1.42.13,2.13.07,1,.15,2,.24,3h0c.1,1.19.22,2.38.35,3.55,0,.16,0,.33.05.49h0c.07.76.16,1.52.26,2.28,0,0,0,.07,0,.11.1.84.22,1.69.33,2.51l.06.44c0,.23.07.47.12.7.06.5.14,1,.22,1.49,0,.32.1.64.15.95l.15.94h0c.18,1.09.38,2.16.59,3.22.31,1.62.64,3.2,1,4.75.43,1.88.91,3.7,1.4,5.45.14.45.27.9.4,1.34,0,.19.11.38.17.56.17.57.34,1.13.53,1.68a72.15,72.15,0,0,0,4.43,10.85c.1.18.19.37.3.55s.28.54.43.8l.44.79Q70.29,131.83,71.42,133.39Z"/><path class="cls-3" d="M62.32,90.84c-.11-1-.22-2-.32-3l.32,0,2.2.09c1,0,2,.06,3.07.08s2.06,0,3.09,0,2,0,3,0L76,88c.55,0,1.12,0,1.67-.06l1.77-.08.46,0c.83,0,1.64-.09,2.45-.15l.34,0c.93-.06,1.86-.13,2.78-.21s1.9-.17,2.85-.27c1.16-.11,2.31-.25,3.44-.39l2-.26c.73-.1,1.45-.2,2.17-.32l1.63-.26c.41-.06.8-.12,1.19-.2s.64-.1,1-.17c.65-.11,1.31-.24,2-.37l.29-.05.92-.19c.53-.1,1-.21,1.57-.33.8-.17,1.58-.35,2.36-.54l.46-.11c.71-.17,1.42-.35,2.12-.54s1.6-.42,2.37-.65,1.46-.42,2.18-.65c.42-.12.85-.26,1.27-.4,1.12-.36,2.22-.74,3.29-1.13l1.06-.4c1.39-.53,2.75-1.08,4.05-1.67l.89-.4c.34-.16.69-.32,1-.49l.92-.46c.61-.3,1.2-.61,1.79-.94.29-.15.58-.32.86-.48.53-.3,1-.61,1.55-.92l.27-.16c.43-.27.86-.55,1.27-.83.7-.47,1.38-1,2-1.46.33-.24.65-.5,1-.75h0l.14-.11c0,.11-.1.21-.16.32s-.22.43-.35.64A17.32,17.32,0,0,1,132.9,75c-.17.2-.35.41-.55.61s-.38.41-.58.61a2.23,2.23,0,0,1-.27.26c-.18.18-.36.36-.55.53a33.68,33.68,0,0,1-5.11,3.83l-.88.54a55.06,55.06,0,0,1-6.43,3.26l-.93.4-.8.33c-.74.3-1.51.6-2.29.89s-1.6.58-2.44.86l-1.88.61-1.92.58-.36.1c-.76.22-1.54.44-2.34.64s-1.36.36-2.07.53l-.77.18-.25.06-.26,0-.76.18-.77.17-.61.13q-.94.21-1.92.39l-.12,0-.52.1L97,91l-1.06.19c-1.05.19-2.11.37-3.2.53-.81.13-1.65.25-2.49.35s-1.82.24-2.74.34-1.84.21-2.78.29-1.88.17-2.83.24h-.1c-.91.07-1.84.13-2.76.18s-1.83.1-2.75.13l-.36,0c-.77,0-1.55,0-2.33.06h-.78l-2.56,0q-3.66,0-7.22-.17l-.42,0c-.09-.61-.17-1.23-.24-1.85C62.35,91.16,62.33,91,62.32,90.84Z"/><path class="cls-1" d="M63.88,38.77c-.09.51-.19,1-.29,1.53.1-.52.19-1,.28-1.53Z"/><path class="cls-1" d="M59.73,87.69l-.81,0-.7-.06h0c0-.16,0-.33-.05-.49-.13-1.17-.25-2.36-.35-3.55l1.34.1c.82,0,1.66.11,2.5.15.08,1,.16,2,.26,3l.09,1h0l-1.65-.09Z"/><path class="cls-1" d="M59.37,99.07c.05.32.1.63.16.94h0Z"/><path class="cls-1" d="M59.22,95.12c-.08-.49-.16-1-.22-1.49,0-.23-.08-.47-.12-.7h0l1.42.1,1.63.1.66,0,.09.67c.1.79.21,1.57.33,2.35l.15,1c-1.23,0-2.44-.11-3.65-.19h0l-.15-.94C59.32,95.76,59.26,95.44,59.22,95.12Z"/><path class="cls-1" d="M58.9,95.93c0,.24.06.47.1.7,0-.23-.08-.47-.12-.7Z"/><path class="cls-1" d="M58.22,90.58h0c0-.16,0-.33-.05-.49A4.1,4.1,0,0,0,58.22,90.58Z"/><path class="cls-1" d="M57.81,86.53c-.09-1-.17-2-.24-3h.24c.1,1.19.22,2.38.35,3.55,0,.16,0,.33.05.49h0l.7.06.81,0,.61,0,1.65.09h0c.1,1,.21,2,.32,3,0,.16,0,.32,0,.47.07.62.15,1.24.24,1.85l-.66,0L60.32,93l-1.42-.1h0l-.39,0s0-.07,0-.11c-.1-.76-.19-1.52-.26-2.28h0a4.1,4.1,0,0,1-.06-.49c-.13-1.17-.25-2.36-.35-3.55Z"/><path class="cls-1" d="M54.91,92.59q.33,2.1.72,4.11l-.55,0c-.06-.35-.11-.7-.17-1.06-.16-1-.31-2-.45-3Z"/><path class="cls-1" d="M54.62,96.7c-1.12-.1-1.58-.21-2.44-.34.8.09,1.61.17,2.42.24C54.61,96.63,54.61,96.67,54.62,96.7Z"/><path class="cls-1" d="M54.91,95.59c.06.36.11.71.17,1.06l-.48-.05c-.25-1.31-.5-2.64-.7-4-1.23-.12-1.55-.26-2.66-.41,1.07.13,2.14.26,3.22.36C54.6,93.57,54.75,94.59,54.91,95.59Z"/><path class="cls-1" d="M52.18,96.36c.86.13,1.32.24,2.44.34,0,0,0-.07,0-.1l.48.05c.17,1,.36,2,.55,3C59,117.17,65,129.23,71.42,133.39q-1.12-1.56-2.19-3.39l-.44-.79c-.15-.26-.29-.53-.43-.8s-.2-.37-.3-.55A72.15,72.15,0,0,1,63.63,117c-.19-.55-.36-1.11-.53-1.68-.06-.18-.12-.37-.17-.56-.13-.44-.26-.89-.4-1.34-.49-1.75-1-3.57-1.4-5.45-.37-1.55-.7-3.13-1-4.75-.21-1.06-.41-2.13-.59-3.22-.06-.31-.11-.62-.16-.94s-.11-.63-.15-.95c-.08-.49-.16-1-.22-1.49,0-.23-.07-.46-.1-.7h0l-.06-.44c-.11-.82-.23-1.67-.33-2.51l.39,0c0,.23.07.47.12.7.06.5.14,1,.22,1.49,0,.32.1.64.15.95l.15.94h0c1.21.08,2.42.14,3.65.19.08.52.17,1,.25,1.54s.16,1,.26,1.48c.19,1.1.39,2.18.61,3.24.15.77.32,1.53.49,2.28.11.51.22,1,.34,1.52s.2.88.31,1.32c0,.14.07.28.11.41.15.62.31,1.23.47,1.83.1.39.2.78.31,1.15s.21.71.31,1.06.27,1,.42,1.41.35,1.11.53,1.66.26.81.39,1.2c.2.58.41,1.16.62,1.72l.43,1.17c.19.49.39,1,.59,1.45a50.52,50.52,0,0,0,4,7.9c.25.39.51.77.77,1.14.42.61.86,1.18,1.3,1.72.14.18.3.36.45.53s.3.35.45.51c.46.49.91.94,1.38,1.36,6.77-1.5,14.77-15.29,18.92-32.8h4.14c-4.49,19.65-13.68,35.84-23.44,36.92a13,13,0,0,1-1.3.08c-12.07,0-20.72-17.47-24.78-39.72-.19-1-.37-2-.53-3.06l.53.06.24,0Z"/><path class="cls-1" d="M50.11,86.79c1.34.17,1.67.32,3,.45l.68-.07c.1,1,.21,2.06.33,3.07.1.78.2,1.54.31,2.3-1.08-.1-2.15-.23-3.22-.36l-.23,0-.17,0h0l-.41-.06c-.11-.75-.2-1.51-.29-2.27-.13-1-.24-2-.34-3Z"/><path class="cls-1" d="M50.84,92.12l.17,0-.17,0h0Z"/><path class="cls-1" d="M51.24,92.18c1.11.15,1.43.29,2.66.41.2,1.37.45,2.7.7,4-.81-.07-1.62-.15-2.42-.24l-.4,0-.24,0L51,96.22c-.06-.36-.12-.72-.17-1.09h0c-.16-1-.31-2-.44-3.06l.41.06h0l.17,0Z"/><path class="cls-1" d="M50.81,82.84c1,.12.93.23,1.9.33.13,1.38.27,2.74.43,4.07-1.36-.13-1.69-.28-3-.45l-.34,0c0-.35-.07-.7-.1-1.06h0c-.09-1-.18-2-.26-3l.26,0Z"/><path class="cls-2" d="M41.23,39.52a1.92,1.92,0,0,1,.48.59,1.9,1.9,0,0,0-.61-.62l-.53-.33A1.86,1.86,0,0,1,41.23,39.52Z"/><path class="cls-2" d="M41.71,42.25a2,2,0,0,1-.64.62l.44-.54a2,2,0,0,0,.2-2.22A2,2,0,0,1,41.71,42.25Z"/><path class="cls-3" d="M5.28,70.75A37.11,37.11,0,0,0,9.49,74c.26.18.54.35.81.52a61,61,0,0,0,9,4.64l.91.38c.61.25,1.23.49,1.87.73,1.26.48,2.56.94,3.91,1.38s2.72.86,4.13,1.25l1.06.3c1.44.39,2.9.76,4.4,1.1.62.15,1.26.29,1.91.43l.54.12,1.63.33.84.17,2,.36c1.59.28,3.2.54,4.83.77l2.4.32c.1,1,.21,2,.34,3,.09.76.18,1.52.29,2.27-.91-.12-1.81-.24-2.71-.38l-1.44-.23c-.78-.12-1.56-.26-2.31-.4l-1.15-.21-1.32-.26-3-.64-1.9-.46-.65-.16-1-.27q-1.74-.47-3.42-1l-1.11-.34-1.15-.37c-.76-.25-1.51-.5-2.23-.76l-1.1-.4c-1.07-.4-2.12-.81-3.13-1.24l-.84-.36-1.16-.52-.93-.44a44,44,0,0,1-9.24-5.76c-.19-.15-.37-.31-.55-.47l-.6-.54-.3-.28q-.51-.49-1-1A16.8,16.8,0,0,1,5.2,71.38c-.07-.15-.15-.3-.21-.45a1.22,1.22,0,0,1-.07-.17c-.06-.15-.12-.29-.17-.44l0-.07.06.06Z"/><path class="cls-1" d="M51,96.22C21.26,92.64,0,80.85,0,66.5c0-.2,0-.41,0-.62s0-.42,0-.64v0c0-.21.05-.44.08-.66s.07-.47.12-.71l0-.11c0-.17.06-.34.1-.51s.12-.46.19-.7.1-.36.16-.54a17,17,0,0,1,2-4.14,13,13,0,0,1,.79-1.14l.43-.57a27.5,27.5,0,0,1,2.39-2.62c.26-.26.54-.51.83-.77s.55-.49.84-.73C14,47,23.08,42.76,34.24,39.88l-4.17-2.65a2,2,0,0,1-.62-2.76,2,2,0,0,1,2.8-.6l8.32,5.29.53.33a1.9,1.9,0,0,1,.61.62,2,2,0,0,1-.2,2.22l-.44.54-6.24,7.5a2,2,0,0,1-1.56.73A2,2,0,0,1,32,50.64a2,2,0,0,1-.28-2.81l3.23-3.9C21,47.58,10.47,53.28,6.17,59.88a4.53,4.53,0,0,0-.34.55,10.26,10.26,0,0,0-.5.91c-.1.2-.19.41-.29.62a11.58,11.58,0,0,0-.64,1.85s0,0,0,0c.12.19.25.37.38.55A20.38,20.38,0,0,0,6.09,66s0,0,0,0c.31.35.64.69,1,1l0,0c.35.35.72.69,1.12,1a34.86,34.86,0,0,0,3.33,2.51c.94.62,1.94,1.23,3,1.82.25.15.51.29.77.43.85.46,1.72.9,2.63,1.32l.87.41c1.23.56,2.52,1.1,3.85,1.61l.69.27q2.88,1.09,6.05,2c.59.18,1.19.36,1.78.52.76.22,1.52.42,2.3.62.62.17,1.25.32,1.89.47l1.31.31,1.57.35q1.55.35,3.12.63c.59.12,1.18.23,1.78.33.76.14,1.53.27,2.3.39l1.36.2c.53.09,1.07.17,1.61.24l.91.13c.08,1,.17,2,.26,3h0c0,.36.07.71.1,1.06l-2.4-.32c-1.63-.23-3.24-.49-4.83-.77l-2-.36-.84-.17-1.63-.33-.54-.12c-.65-.14-1.29-.28-1.91-.43-1.5-.34-3-.71-4.4-1.1l-1.06-.3C28.75,82.46,27.37,82,26,81.6s-2.65-.9-3.91-1.38c-.64-.24-1.26-.48-1.87-.73l-.91-.38a61,61,0,0,1-9-4.64c-.27-.17-.55-.34-.81-.52a37.11,37.11,0,0,1-4.21-3.2l-.5-.44-.06-.06,0,.07c0,.15.11.29.17.44a1.22,1.22,0,0,0,.07.17c.06.15.14.3.21.45a16.8,16.8,0,0,0,2.94,4.24q.45.5,1,1l.3.28.6.54c.18.16.36.32.55.47a44,44,0,0,0,9.24,5.76l.93.44,1.16.52.84.36c1,.43,2.06.84,3.13,1.24l1.1.4c.72.26,1.47.51,2.23.76l1.15.37,1.11.34q1.68.5,3.42,1l1,.27.65.16,1.9.46,3,.64,1.32.26,1.15.21c.75.14,1.53.28,2.31.4l1.44.23c.9.14,1.8.26,2.71.38.13,1,.28,2,.44,3.06h0C50.89,95.5,51,95.86,51,96.22Z"/></g></g></svg>