<svg xmlns="http://www.w3.org/2000/svg" viewBox="0 0 154.72 121.88"><defs><style>.cls-1{fill:#080d28;}.cls-2{fill:#0b1330;}.cls-3{fill:#87530e;}</style></defs><title>Asset 1</title><g id="Layer_2" data-name="Layer 2"><g id="Layer_1-2" data-name="Layer 1"><path class="cls-1" d="M151,71.65a1.08,1.08,0,0,1,.74-.31h0a.86.86,0,1,1,0,1.7,1.06,1.06,0,0,1-.72-.27.74.74,0,0,1-.05-1.12Z"/><path class="cls-1" d="M151,71.65a.74.74,0,0,0,.05,1.12,1.06,1.06,0,0,0,.72.27.86.86,0,1,0,0-1.7h0A1.08,1.08,0,0,0,151,71.65Zm-.62,1.87a1.82,1.82,0,0,1-.61-1.29,1.93,1.93,0,0,1,2-1.89h0a1.92,1.92,0,0,1,2,1.81v.06a1.91,1.91,0,0,1-2,1.83h0A2.09,2.09,0,0,1,150.33,73.52Z"/><path class="cls-1" d="M149.13,79.45a.71.71,0,0,1,0-.58,1,1,0,0,1,.92-.53,1.12,1.12,0,0,1,.44.09.85.85,0,0,1,.55.77.88.88,0,0,1-.07.32,1,1,0,0,1-1.37.43A.93.93,0,0,1,149.13,79.45Z"/><path class="cls-1" d="M150.27,66a1.11,1.11,0,0,1-1.38-.4.73.73,0,0,1-.06-.58.89.89,0,0,1,.5-.53,1,1,0,0,1,.46-.11,1.06,1.06,0,0,1,.92.51.76.76,0,0,1,.09.35A.87.87,0,0,1,150.27,66Z"/><path class="cls-1" d="M149.72,72.23a1.82,1.82,0,0,0,.61,1.29,2.09,2.09,0,0,0,1.39.52h0a1.91,1.91,0,0,0,2-1.83v-.06a1.92,1.92,0,0,0-2-1.81h0A1.93,1.93,0,0,0,149.72,72.23Zm-.06,2a2.75,2.75,0,0,1-.15-4,3.12,3.12,0,0,1,2.17-.92h0a2.85,2.85,0,1,1,.05,5.7A3.1,3.1,0,0,1,149.66,74.26Z"/><path class="cls-1" d="M149.25,80.87a1.78,1.78,0,0,1-1-2.45,2,2,0,0,1,1.82-1.08,2.2,2.2,0,0,1,.83.17,1.86,1.86,0,0,1,1.16,1.69,1.77,1.77,0,0,1-.18.77,2,2,0,0,1-1.82,1.08A1.89,1.89,0,0,1,149.25,80.87Zm-.08-2a.71.71,0,0,0,0,.58.93.93,0,0,0,.51.5,1,1,0,0,0,1.37-.43.88.88,0,0,0,.07-.32.85.85,0,0,0-.55-.77,1.12,1.12,0,0,0-.44-.09A1,1,0,0,0,149.17,78.87Z"/><path class="cls-1" d="M148.89,65.61a1.11,1.11,0,0,0,1.38.4.87.87,0,0,0,.53-.76.76.76,0,0,0-.09-.35,1.06,1.06,0,0,0-.92-.51,1,1,0,0,0-.46.11.89.89,0,0,0-.5.53A.73.73,0,0,0,148.89,65.61Zm-.88.48a1.79,1.79,0,0,1,.88-2.49,2.08,2.08,0,0,1,.9-.21,2.05,2.05,0,0,1,1.79,1,1.7,1.7,0,0,1,.22.84,1.86,1.86,0,0,1-1.1,1.66,2.07,2.07,0,0,1-.9.2A2,2,0,0,1,148,66.09Z"/><path class="cls-1" d="M148.27,78.42a1.78,1.78,0,0,0,1,2.45,1.89,1.89,0,0,0,.83.18A2,2,0,0,0,151.9,80a1.77,1.77,0,0,0,.18-.77,1.86,1.86,0,0,0-1.16-1.69,2.2,2.2,0,0,0-.83-.17A2,2,0,0,0,148.27,78.42Zm-1,1.73a2.72,2.72,0,0,1,.12-2.18,3.09,3.09,0,0,1,3.92-1.38h0a2.86,2.86,0,0,1,1.76,2.61,2.7,2.7,0,0,1-.28,1.2,3,3,0,0,1-2.72,1.65,3.05,3.05,0,0,1-1.23-.26A2.88,2.88,0,0,1,147.26,80.15Z"/><path class="cls-1" d="M148.89,63.6a1.79,1.79,0,0,0-.88,2.49,2,2,0,0,0,1.79,1,2.07,2.07,0,0,0,.9-.2,1.86,1.86,0,0,0,1.1-1.66,1.7,1.7,0,0,0-.22-.84,2.05,2.05,0,0,0-1.79-1A2.08,2.08,0,0,0,148.89,63.6Zm-1.76,3a2.72,2.72,0,0,1-.2-2.16,2.9,2.9,0,0,1,1.54-1.72,3.11,3.11,0,0,1,1.32-.3,3,3,0,0,1,2.67,1.54,2.65,2.65,0,0,1,.34,1.32,2.87,2.87,0,0,1-1.67,2.56,3.09,3.09,0,0,1-4-1.24Z"/><path class="cls-1" d="M145,85.72a.8.8,0,0,1-.29-.58.75.75,0,0,1,.25-.58,1,1,0,0,1,.75-.29,1.14,1.14,0,0,1,.72.25.83.83,0,0,1,.28.6.74.74,0,0,1-.24.55A1.15,1.15,0,0,1,145,85.72Z"/><path class="cls-1" d="M144.41,60.07a.76.76,0,0,1-.27-.57.78.78,0,0,1,.26-.59,1.07,1.07,0,0,1,.73-.28,1.1,1.1,0,0,1,.74.28.75.75,0,0,1,.27.57.81.81,0,0,1-.27.59A1.17,1.17,0,0,1,144.41,60.07Z"/><path class="cls-1" d="M144.21,83.85a2,2,0,0,1,1.46-.58,2.07,2.07,0,0,1,1.37.5,1.76,1.76,0,0,1,.09,2.62,2.08,2.08,0,0,1-1.46.58,2.05,2.05,0,0,1-1.37-.5A1.75,1.75,0,0,1,144.21,83.85Zm1.46.42a1,1,0,0,0-.75.29.75.75,0,0,0-.25.58.8.8,0,0,0,.29.58,1.15,1.15,0,0,0,1.47,0,.74.74,0,0,0,.24-.55.83.83,0,0,0-.28-.6A1.14,1.14,0,0,0,145.67,84.27Z"/><path class="cls-1" d="M144.14,59.5a.76.76,0,0,0,.27.57,1.17,1.17,0,0,0,1.46,0,.81.81,0,0,0,.27-.59.75.75,0,0,0-.27-.57,1.1,1.1,0,0,0-.74-.28,1.07,1.07,0,0,0-.73.28A.78.78,0,0,0,144.14,59.5Zm-.41,1.31a1.76,1.76,0,0,1,0-2.62,2.07,2.07,0,0,1,1.42-.56,2.12,2.12,0,0,1,1.41.54,1.76,1.76,0,0,1,.6,1.31,1.8,1.8,0,0,1-.58,1.31,2.07,2.07,0,0,1-1.43.55A2.11,2.11,0,0,1,143.73,60.81Z"/><path class="cls-1" d="M145.67,83.27a2,2,0,0,0-1.46.58,1.75,1.75,0,0,0,.09,2.62,2.05,2.05,0,0,0,1.37.5,2.08,2.08,0,0,0,1.46-.58,1.76,1.76,0,0,0-.09-2.62A2.07,2.07,0,0,0,145.67,83.27Zm-2.16-.14a3.21,3.21,0,0,1,4.18-.12h0a2.77,2.77,0,0,1,.14,4.08,3.11,3.11,0,0,1-2.17.87,3,3,0,0,1-2-.75,2.76,2.76,0,0,1-1-2A2.79,2.79,0,0,1,143.51,83.13Z"/><path class="cls-1" d="M145.13,62.34a3.07,3.07,0,0,1-2.07-.79,2.77,2.77,0,0,1,0-4.09,3.19,3.19,0,0,1,4.19,0,2.77,2.77,0,0,1,.93,2,2.82,2.82,0,0,1-.89,2A3.06,3.06,0,0,1,145.13,62.34Zm-1.42-4.15a1.76,1.76,0,0,0,0,2.62,2.11,2.11,0,0,0,1.4.53,2.07,2.07,0,0,0,1.43-.55,1.8,1.8,0,0,0,.58-1.31,1.76,1.76,0,0,0-.6-1.31,2.12,2.12,0,0,0-1.41-.54A2.07,2.07,0,0,0,143.71,58.19Z"/><path class="cls-1" d="M138.74,89.67a.85.85,0,0,1,.39-.55,1.16,1.16,0,0,1,.6-.17,1,1,0,0,1,.84.39.76.76,0,0,1,.16.46.82.82,0,0,1-.39.68,1.16,1.16,0,0,1-1.46-.22A.76.76,0,0,1,138.74,89.67Z"/><path class="cls-1" d="M138.44,55.71a.84.84,0,0,1-.41-.54.71.71,0,0,1,.12-.58,1.06,1.06,0,0,1,.86-.43,1,1,0,0,1,.57.16l.1.06A.79.79,0,0,1,140,55a.82.82,0,0,1-.12.41A1.13,1.13,0,0,1,138.44,55.71Z"/><path class="cls-1" d="M139.73,91.65a2.06,2.06,0,0,1-1.65-.79,1.77,1.77,0,0,1,.51-2.58,2.13,2.13,0,0,1,1.14-.33,2,2,0,0,1,1.64.79,1.78,1.78,0,0,1,.36,1.06,1.82,1.82,0,0,1-.86,1.52A2.15,2.15,0,0,1,139.73,91.65Zm-.6-2.53a.85.85,0,0,0-.39.55.76.76,0,0,0,.14.59,1.16,1.16,0,0,0,1.46.22.82.82,0,0,0,.39-.68.76.76,0,0,0-.16-.46,1,1,0,0,0-.84-.39A1.16,1.16,0,0,0,139.13,89.12Z"/><path class="cls-1" d="M139,54.16a1.06,1.06,0,0,0-.86.43.71.71,0,0,0-.12.58.84.84,0,0,0,.41.54,1.13,1.13,0,0,0,1.45-.27A.82.82,0,0,0,140,55a.79.79,0,0,0-.33-.65l-.1-.06A1,1,0,0,0,139,54.16ZM137.33,54a2,2,0,0,1,1.68-.86,2.12,2.12,0,0,1,1.08.3h0A1.82,1.82,0,0,1,141,55a1.78,1.78,0,0,1-.31,1,2.09,2.09,0,0,1-1.69.85,2,2,0,0,1-1.08-.3A1.76,1.76,0,0,1,137.33,54Z"/><path class="cls-1" d="M139.73,88a2.13,2.13,0,0,0-1.14.33,1.77,1.77,0,0,0-.51,2.58,2.06,2.06,0,0,0,1.65.79,2.15,2.15,0,0,0,1.14-.33,1.82,1.82,0,0,0,.86-1.52,1.78,1.78,0,0,0-.36-1.06A2,2,0,0,0,139.73,88Zm-3,1.36a2.84,2.84,0,0,1,1.29-1.88,3.18,3.18,0,0,1,4.11.71h0a2.76,2.76,0,0,1-.77,4,3.16,3.16,0,0,1-1.68.49,3.07,3.07,0,0,1-2.45-1.19A2.74,2.74,0,0,1,136.77,89.31Z"/><path class="cls-1" d="M139,57.87a3.07,3.07,0,0,1-1.59-.44,2.8,2.8,0,0,1-1.34-1.83,2.73,2.73,0,0,1,.43-2.16,3.08,3.08,0,0,1,2.58-1.28v-.47l1.52.9A2.83,2.83,0,0,1,142,55a2.78,2.78,0,0,1-.48,1.55A3.1,3.1,0,0,1,139,57.87ZM137.33,54a1.76,1.76,0,0,0,.6,2.55,2,2,0,0,0,1.08.3A2.09,2.09,0,0,0,140.7,56a1.78,1.78,0,0,0,.31-1,1.82,1.82,0,0,0-.92-1.58h0a2.12,2.12,0,0,0-1.08-.3A2,2,0,0,0,137.33,54Z"/><path class="cls-1" d="M132.08,93.8a.7.7,0,0,1-.05-.59.92.92,0,0,1,.49-.52,1.23,1.23,0,0,1,.46-.1,1,1,0,0,1,.92.51.72.72,0,0,1,.09.34.84.84,0,0,1-.54.76A1.15,1.15,0,0,1,132.08,93.8Z"/><path class="cls-1" d="M133.06,51.92a1.07,1.07,0,0,1-1.36.45.9.9,0,0,1-.52-.51.74.74,0,0,1,0-.58,1,1,0,0,1,.92-.53,1.27,1.27,0,0,1,.44.08.88.88,0,0,1,.56.78A.67.67,0,0,1,133.06,51.92Z"/><path class="cls-1" d="M131.19,94.27a1.81,1.81,0,0,1,.91-2.49,2.12,2.12,0,0,1,.88-.19,2,2,0,0,1,1.8,1,1.72,1.72,0,0,1,.21.81,1.84,1.84,0,0,1-1.12,1.67,2.08,2.08,0,0,1-.88.19A2,2,0,0,1,131.19,94.27Zm.84-1.06a.7.7,0,0,0,.05.59,1.15,1.15,0,0,0,1.37.4.84.84,0,0,0,.54-.76.72.72,0,0,0-.09-.34,1,1,0,0,0-.92-.51,1.23,1.23,0,0,0-.46.1A.92.92,0,0,0,132,93.21Z"/><path class="cls-1" d="M131.7,52.37a1.07,1.07,0,0,0,1.36-.45.67.67,0,0,0,.07-.31.88.88,0,0,0-.56-.78,1.27,1.27,0,0,0-.44-.08,1,1,0,0,0-.92.53.74.74,0,0,0,0,.58A.9.9,0,0,0,131.7,52.37Zm-.39.92a1.79,1.79,0,0,1-1-2.44,2,2,0,0,1,1.82-1.1,2.14,2.14,0,0,1,.82.16,1.86,1.86,0,0,1,1.18,1.7,1.68,1.68,0,0,1-.17.75,2,2,0,0,1-1.83,1.1A2.19,2.19,0,0,1,131.31,53.29Z"/><path class="cls-1" d="M132.1,91.78a1.81,1.81,0,0,0-.91,2.49,2,2,0,0,0,1.8,1,2.08,2.08,0,0,0,.88-.19A1.84,1.84,0,0,0,135,93.44a1.72,1.72,0,0,0-.21-.81,2,2,0,0,0-1.8-1A2.12,2.12,0,0,0,132.1,91.78Zm-2,.78a2.86,2.86,0,0,1,1.55-1.69,3.18,3.18,0,0,1,1.29-.28,3,3,0,0,1,2.68,1.56,2.69,2.69,0,0,1,.33,1.29,2.83,2.83,0,0,1-1.7,2.58,3.09,3.09,0,0,1-1.3.28,3,3,0,0,1-2.68-1.56A2.73,2.73,0,0,1,130.14,92.56Z"/><path class="cls-1" d="M132.13,54.46a3.17,3.17,0,0,1-1.2-.24,2.9,2.9,0,0,1-1.62-1.66,2.67,2.67,0,0,1,.11-2.16,3,3,0,0,1,2.71-1.65,3.2,3.2,0,0,1,1.2.23h0a2.84,2.84,0,0,1,1.8,2.62,2.66,2.66,0,0,1-.27,1.19A3,3,0,0,1,132.13,54.46Zm-1.82-3.61a1.79,1.79,0,0,0,1,2.44,2.19,2.19,0,0,0,.82.17,2,2,0,0,0,1.83-1.1,1.68,1.68,0,0,0,.17-.75,1.86,1.86,0,0,0-1.18-1.7,2.14,2.14,0,0,0-.82-.16A2,2,0,0,0,130.31,50.85Z"/><path class="cls-1" d="M124.87,95.94a.89.89,0,0,1,.56-.47,1.24,1.24,0,0,1,.37-.06,1,1,0,0,1,1,.59.74.74,0,0,1,0,.25.88.88,0,0,1-.65.81,1.06,1.06,0,0,1-1.3-.54A.71.71,0,0,1,124.87,95.94Z"/><path class="cls-1" d="M125.43,95.47a.89.89,0,0,0-.56.47.71.71,0,0,0,0,.58,1.06,1.06,0,0,0,1.3.54.88.88,0,0,0,.65-.81.74.74,0,0,0,0-.25,1,1,0,0,0-1-.59A1.24,1.24,0,0,0,125.43,95.47Zm-1.52,1.41a1.81,1.81,0,0,1,1.21-2.36,2.06,2.06,0,0,1,.68-.11,2,2,0,0,1,1.88,1.22,1.71,1.71,0,0,1,.12.62A1.86,1.86,0,0,1,126.47,98a2.07,2.07,0,0,1-2.56-1.12Z"/><path class="cls-1" d="M123.88,48.8a1,1,0,0,1,1-.62,1,1,0,0,1,.3,0h0a.87.87,0,0,1,.67.81.85.85,0,0,1,0,.23,1.08,1.08,0,0,1-1.3.57l0,0a.87.87,0,0,1-.53-.44A.69.69,0,0,1,123.88,48.8Z"/><path class="cls-1" d="M124.83,48.18a1,1,0,0,0-1,.62.69.69,0,0,0,0,.58.87.87,0,0,0,.53.44l0,0a1.08,1.08,0,0,0,1.3-.57.85.85,0,0,0,0-.23.87.87,0,0,0-.67-.81h0A1,1,0,0,0,124.83,48.18Zm-.61,2.62a1.82,1.82,0,0,1-1.29-2.33,2,2,0,0,1,1.9-1.29,1.84,1.84,0,0,1,.61.09A1.87,1.87,0,0,1,126.83,49a1.76,1.76,0,0,1-.09.55,2,2,0,0,1-1.91,1.29,2.06,2.06,0,0,1-.6-.08Z"/><path class="cls-1" d="M123.91,96.88A2.07,2.07,0,0,0,126.47,98a1.86,1.86,0,0,0,1.33-1.75,1.71,1.71,0,0,0-.12-.62,2,2,0,0,0-1.88-1.22,2.06,2.06,0,0,0-.68.11A1.81,1.81,0,0,0,123.91,96.88Zm-.93.36a2.72,2.72,0,0,1,.08-2.15,2.94,2.94,0,0,1,1.75-1.52,3.05,3.05,0,0,1,3.8,1.69,2.64,2.64,0,0,1,.19,1,2.86,2.86,0,0,1-2,2.7,3.07,3.07,0,0,1-3.8-1.71Z"/><path class="cls-1" d="M123.94,51.76a3,3,0,0,1-1.8-1.46,2.71,2.71,0,0,1-.15-2.16,3,3,0,0,1,2.84-2,3,3,0,0,1,.91.13A2.87,2.87,0,0,1,127.83,49a2.54,2.54,0,0,1-.14.86,3,3,0,0,1-2.86,2,3.53,3.53,0,0,1-.72-.08Zm-1-3.29a1.82,1.82,0,0,0,1.29,2.33h0a2.06,2.06,0,0,0,.6.08,2,2,0,0,0,1.91-1.29,1.76,1.76,0,0,0,.09-.55,1.87,1.87,0,0,0-1.39-1.77,1.84,1.84,0,0,0-.61-.09A2,2,0,0,0,122.93,48.47Z"/><path class="cls-2" d="M119.73,15.71c0-.1,0-.19,0-.28A2.64,2.64,0,0,1,119.73,15.71Z"/><path class="cls-2" d="M119.73,15.71a.36.36,0,0,1,0,.1s0,0,0,0A.25.25,0,0,0,119.73,15.71Z"/><path class="cls-2" d="M119.66,14.82a2.1,2.1,0,0,1,.09.61A2,2,0,0,0,119.66,14.82Z"/><path class="cls-2" d="M119.67,16a.94.94,0,0,0,0-.16A.94.94,0,0,1,119.67,16Z"/><path class="cls-2" d="M119.38,14.26a2,2,0,0,1,.27.54,2.29,2.29,0,0,0-.29-.56Z"/><path class="cls-2" d="M119.15,14a2,2,0,0,0-.53-.37A1.88,1.88,0,0,1,119.15,14Z"/><path class="cls-2" d="M115.84,56.85a1.81,1.81,0,0,0-1,0l.87-37.46,3.23-2.33h0a1.93,1.93,0,0,0,.75-1.08.94.94,0,0,0,0-.16,1.84,1.84,0,0,1,0,.41l-1,43a.77.77,0,0,1,0,.15,1.82,1.82,0,0,0,0-.52,2,2,0,0,0-.55-1.08,1.14,1.14,0,0,0-.11-.11l-.25-.18a1.77,1.77,0,0,0-.49-.21l0,0-.09,0Z"/><path class="cls-2" d="M118.74,59.37a.06.06,0,0,1,0,.07A.17.17,0,0,0,118.74,59.37Z"/><path class="cls-2" d="M118.68,59.71a2.56,2.56,0,0,0,0-.27A.86.86,0,0,1,118.68,59.71Z"/><path class="cls-2" d="M118.52,58.25a1.85,1.85,0,0,1,.2.6A1.93,1.93,0,0,0,118.52,58.25Z"/><path class="cls-2" d="M118.56,60a1.67,1.67,0,0,0,.08-.2A.84.84,0,0,1,118.56,60Z"/><path class="cls-2" d="M118.62,13.63a1.66,1.66,0,0,0-.31-.12A1.66,1.66,0,0,1,118.62,13.63Z"/><path class="cls-2" d="M118.53,60.09a1.62,1.62,0,0,1-.1.18A1.62,1.62,0,0,0,118.53,60.09Z"/><path class="cls-2" d="M118.4,60.32l-.05.06Z"/><path class="cls-2" d="M115.75,16.13a2,2,0,0,1,2-1.95,2,2,0,0,1,1.91,1.6s0,0,0,0a.94.94,0,0,1,0,.16,1.93,1.93,0,0,1-.75,1.08h0a2,2,0,0,1-1.16.37,2.23,2.23,0,0,1-.56-.08l-1.46-.43Z"/><path class="cls-1" d="M117.35,98.56a.73.73,0,0,1,.08-.57,1,1,0,0,1,.62-.44,1.23,1.23,0,0,1,.28,0,1,1,0,0,1,1,.66,1.37,1.37,0,0,1,0,.19.9.9,0,0,1-.76.84A1,1,0,0,1,117.35,98.56Z"/><path class="cls-2" d="M118.2,60.55s0,0,0,0Z"/><path class="cls-2" d="M118.17,57.77a1.14,1.14,0,0,0-.11-.11A1.14,1.14,0,0,1,118.17,57.77Z"/><path class="cls-2" d="M118.16,60.59l-.08.08Z"/><path class="cls-1" d="M117.91,60.81a.39.39,0,0,0,.1-.08Z"/><path class="cls-2" d="M116.09,61.06a2,2,0,0,1-1.33-1.93l0-1,.74-.57a2,2,0,0,1,1.67-.37l.09,0,0,0a1.65,1.65,0,0,1,.49.21l.25.18a1.14,1.14,0,0,1,.11.11,1.85,1.85,0,0,1,.35.48,1.93,1.93,0,0,1,.2.6,1.82,1.82,0,0,1,0,.52.17.17,0,0,1,0,.07,2.56,2.56,0,0,1,0,.27.56.56,0,0,1,0,.12,1.67,1.67,0,0,1-.08.2.09.09,0,0,1,0,.06,1.62,1.62,0,0,1-.1.18l0,0-.05.06a.8.8,0,0,1-.15.17l0,0-.08.08-.07.06a.39.39,0,0,1-.1.08l0,0,0,0a1.18,1.18,0,0,1-.19.11l-.25.1a1.18,1.18,0,0,1-.31.08,1.73,1.73,0,0,1-.32,0h-.05a1.24,1.24,0,0,1-.27,0l-.22,0Z"/><path class="cls-2" d="M117.88,60.83l0,0Z"/><path class="cls-2" d="M117.39,61.07l.25-.1A1.09,1.09,0,0,1,117.39,61.07Z"/><path class="cls-2" d="M117.81,57.48a1.65,1.65,0,0,0-.49-.21A1.77,1.77,0,0,1,117.81,57.48Z"/><path class="cls-2" d="M117.08,61.15a1.18,1.18,0,0,0,.31-.08A1.09,1.09,0,0,1,117.08,61.15Z"/><path class="cls-2" d="M118.91,17.06l-3.23,2.33,0-2.47,1.46.43a2.23,2.23,0,0,0,.56.08A2,2,0,0,0,118.91,17.06Z"/><path class="cls-2" d="M116.76,61.18a1.73,1.73,0,0,0,.32,0A1.66,1.66,0,0,1,116.76,61.18Z"/><path class="cls-1" d="M117.35,98.56a1,1,0,0,0,1.21.64.9.9,0,0,0,.76-.84,1.37,1.37,0,0,0,0-.19,1,1,0,0,0-1-.66,1.23,1.23,0,0,0-.28,0,1,1,0,0,0-.62.44A.73.73,0,0,0,117.35,98.56Zm1,1.67a2,2,0,0,1-1.94-1.4,1.85,1.85,0,0,1,1.45-2.25,2.23,2.23,0,0,1,.5-.07,2,2,0,0,1,1.93,1.4,1.81,1.81,0,0,1-1.44,2.25A1.77,1.77,0,0,1,118.32,100.23Z"/><path class="cls-2" d="M116.22,61.1l.22,0Z"/><path class="cls-1" d="M116.38,98.83a2,2,0,0,0,1.94,1.4,1.77,1.77,0,0,0,.5-.07,1.81,1.81,0,0,0,1.44-2.25,2,2,0,0,0-1.93-1.4,2.23,2.23,0,0,0-.5.07A1.85,1.85,0,0,0,116.38,98.83Zm1.94,2.4a3,3,0,0,1-2.9-2.14,2.75,2.75,0,0,1,.29-2.13,3,3,0,0,1,1.89-1.36,3.61,3.61,0,0,1,.73-.09,3,3,0,0,1,2.9,2.13v0a2.92,2.92,0,0,1,.09.7,2.88,2.88,0,0,1-2.27,2.78A3.24,3.24,0,0,1,118.32,101.23Z"/><path class="cls-2" d="M117.83,60.86,91.49,81.36a1.92,1.92,0,0,0,.28-1V76.07l20.09-15.62,1.52-1.18a2,2,0,0,0,1.39,1.43l1.32.36.13,0,.22,0a1.24,1.24,0,0,0,.27,0h.05a1.66,1.66,0,0,0,.32,0,2.3,2.3,0,0,0,.56-.18A1.18,1.18,0,0,0,117.83,60.86Z"/><path class="cls-2" d="M113.26,16.2l3.32-2.39a2,2,0,0,1,1.55-.35l.18,0a1.66,1.66,0,0,1,.31.12,2,2,0,0,1,.53.37,1.21,1.21,0,0,1,.21.24,2.29,2.29,0,0,1,.29.56v0a2,2,0,0,1,.09.61c0,.09,0,.18,0,.28a.25.25,0,0,1,0,.07,2,2,0,0,0-1.91-1.6,2,2,0,0,0-2,1.95l0,.79Z"/><path class="cls-2" d="M115.84,56.85l1.35.38a2,2,0,0,0-1.67.37l-.74.57,0-1.32A1.81,1.81,0,0,1,115.84,56.85Z"/><path class="cls-1" d="M114.77,60.7a2,2,0,0,1-1.39-1.43l1.4-1.1,0,1a2,2,0,0,0,1.33,1.93Z"/><path class="cls-1" d="M114.81,56.85l0,1.32-1.4,1.1a1.81,1.81,0,0,1,0-1A2,2,0,0,1,114.81,56.85Z"/><path class="cls-1" d="M109.84,55.19a2,2,0,0,1,1.39,2.46,2,2,0,0,1-.72,1.07,2,2,0,0,1-1.74.33l-3-.83a2,2,0,0,1,1.07-3.86Z"/><path class="cls-1" d="M110.68,99a1,1,0,0,1,1,.72v0a.49.49,0,0,1,0,.12.89.89,0,0,1-.82.83l-.11,0a1,1,0,0,1-1.06-.72.74.74,0,0,1,.14-.57,1,1,0,0,1,.69-.4Z"/><path class="cls-1" d="M110.75,100.71l.11,0a.89.89,0,0,0,.82-.83.49.49,0,0,0,0-.12v0a1,1,0,0,0-1-.72l-.16,0a1,1,0,0,0-.69.4.74.74,0,0,0-.14.57A1,1,0,0,0,110.75,100.71Zm-.07,1a2,2,0,0,1-2-1.54A1.87,1.87,0,0,1,110.35,98a1.84,1.84,0,0,1,.33,0,2,2,0,0,1,2,1.55,1.55,1.55,0,0,1,0,.31,1.89,1.89,0,0,1-1.67,1.82h0A1.83,1.83,0,0,1,110.68,101.71Z"/><path class="cls-1" d="M108.19,98.26a3.06,3.06,0,0,1,2-1.22,3.73,3.73,0,0,1,.48,0,3,3,0,0,1,3,2.37,2.63,2.63,0,0,1,0,.49,2.83,2.83,0,0,1-1.67,2.56v.11l-.83.15a4.19,4.19,0,0,1-.5,0,2.93,2.93,0,0,1-3-2.36A2.73,2.73,0,0,1,108.19,98.26Zm.52,1.91a2,2,0,0,0,2,1.54,1.83,1.83,0,0,0,.33,0h0a1.89,1.89,0,0,0,1.67-1.82,1.55,1.55,0,0,0,0-.31,2,2,0,0,0-2-1.55,1.84,1.84,0,0,0-.33,0A1.87,1.87,0,0,0,108.71,100.17Z"/><path class="cls-1" d="M102.93,101.64a1,1,0,0,1-1-.79.73.73,0,0,1,.18-.56,1.12,1.12,0,0,1,.81-.36,1,1,0,0,1,1,.78v.07a.91.91,0,0,1-.9.85Z"/><path class="cls-1" d="M100.84,52.7a2,2,0,0,1,1.39,2.46,1.75,1.75,0,0,1-.12.32,2,2,0,0,1-1.8,1.15,2,2,0,0,1-.54-.07l-3-.83a2,2,0,0,1,1.07-3.85Z"/><path class="cls-1" d="M100.94,101a1.89,1.89,0,0,1,1.81-2h.18a1.94,1.94,0,0,1,2,1.69.86.86,0,0,1,0,.16,1.91,1.91,0,0,1-1.82,1.85h-.18A2,2,0,0,1,100.94,101Zm1-.1a1,1,0,0,0,1,.79h.1a.91.91,0,0,0,.9-.85v-.07a1,1,0,0,0-1-.78,1.12,1.12,0,0,0-.81.36A.73.73,0,0,0,101.94,100.85Z"/><path class="cls-1" d="M100.58,99a3.07,3.07,0,0,1,2.09-1.07h.26a2.92,2.92,0,0,1,3,2.56,1.42,1.42,0,0,1,0,.29,2.88,2.88,0,0,1-2.74,2.84l-.26,0a3,3,0,0,1-3-2.6A2.71,2.71,0,0,1,100.58,99Zm2.17-.07a1.89,1.89,0,0,0-1.81,2,2,2,0,0,0,2,1.69h.18a1.91,1.91,0,0,0,1.82-1.85.86.86,0,0,0,0-.16,1.94,1.94,0,0,0-2-1.69Z"/><path class="cls-1" d="M94.34,101.75a.77.77,0,0,1-.27-.57.81.81,0,0,1,.27-.58,1.49,1.49,0,0,1,.13-.11l.2-.09.19-.06.24,0h.15l.24.07a.88.88,0,0,1,.18.1.45.45,0,0,1,.14.1.82.82,0,0,1,.26.58v.12a.64.64,0,0,1-.06.18.83.83,0,0,1-.09.15.63.63,0,0,1-.11.12,1.06,1.06,0,0,1-.74.28h-.18a1,1,0,0,1-.21-.07.83.83,0,0,1-.21-.1A.57.57,0,0,1,94.34,101.75Z"/><path class="cls-1" d="M94,99.63a2.21,2.21,0,0,1,.35-.16,1.73,1.73,0,0,1,.37-.11,2.1,2.1,0,0,1,.79,0,1.73,1.73,0,0,1,.37.11,1.77,1.77,0,0,1,.34.16,2.49,2.49,0,0,1,.31.23,1.83,1.83,0,0,1,.58,1.32,2.19,2.19,0,0,1,0,.36,2.42,2.42,0,0,1-.12.35,1.57,1.57,0,0,1-.18.31,2.26,2.26,0,0,1-.25.29,2.08,2.08,0,0,1-1.42.54,2.56,2.56,0,0,1-.39,0l-.37-.11a2.69,2.69,0,0,1-.34-.17,1.83,1.83,0,0,1-.9-1.54,1.84,1.84,0,0,1,.59-1.32A2.37,2.37,0,0,1,94,99.63Zm.11,1.55a.77.77,0,0,0,.27.57.57.57,0,0,0,.13.1.83.83,0,0,0,.21.1,1,1,0,0,0,.21.07h.18a1.06,1.06,0,0,0,.74-.28.63.63,0,0,0,.11-.12.83.83,0,0,0,.09-.15.64.64,0,0,0,.06-.18v-.12a.82.82,0,0,0-.26-.58.45.45,0,0,0-.14-.1.88.88,0,0,0-.18-.1l-.24-.07H95.1l-.24,0-.19.06-.2.09a1.49,1.49,0,0,0-.13.11A.81.81,0,0,0,94.07,101.18Z"/><path class="cls-1" d="M91.84,50.22a2,2,0,0,1,1.39,2.46,1.75,1.75,0,0,1-.12.32,2,2,0,0,1-1.34,1.08V50.2Z"/><path class="cls-1" d="M94.31,99.47a2.21,2.21,0,0,0-.35.16,2.37,2.37,0,0,0-.3.23,1.84,1.84,0,0,0-.59,1.32,1.83,1.83,0,0,0,.9,1.54,2.69,2.69,0,0,0,.34.17l.37.11a2.56,2.56,0,0,0,.39,0,2.08,2.08,0,0,0,1.42-.54,2.26,2.26,0,0,0,.25-.29,1.57,1.57,0,0,0,.18-.31,2.42,2.42,0,0,0,.12-.35,2.19,2.19,0,0,0,0-.36,1.83,1.83,0,0,0-.58-1.32,2.49,2.49,0,0,0-.31-.23,1.77,1.77,0,0,0-.34-.16,1.73,1.73,0,0,0-.37-.11,2.1,2.1,0,0,0-.79,0A1.73,1.73,0,0,0,94.31,99.47ZM93,103.22a2.75,2.75,0,0,1,0-4.09,3,3,0,0,1,.47-.36,4.59,4.59,0,0,1,.5-.24,4.91,4.91,0,0,1,.51-.15,3.18,3.18,0,0,1,1.19,0,4.63,4.63,0,0,1,.55.16,4.37,4.37,0,0,1,.53.26,3.52,3.52,0,0,1,.44.34,2.82,2.82,0,0,1,.9,2.05,3,3,0,0,1,0,.52,2.52,2.52,0,0,1-.2.59,3.07,3.07,0,0,1-.28.51,3.52,3.52,0,0,1-.38.42,3.08,3.08,0,0,1-2.1.81,4.73,4.73,0,0,1-.53,0,3,3,0,0,1-.59-.17,3.27,3.27,0,0,1-.53-.26A3.37,3.37,0,0,1,93,103.22Z"/><path class="cls-2" d="M89.37,33.4l23.89-17.2,2.47.72,0,2.47L91.77,36.6v-1a1.84,1.84,0,0,0,0-.33,1.09,1.09,0,0,0-.08-.31,1.39,1.39,0,0,0-.12-.28,1.66,1.66,0,0,0-.19-.3.8.8,0,0,0-.15-.17.3.3,0,0,0-.08-.08,1.37,1.37,0,0,0-.23-.19h0a1.4,1.4,0,0,0-.29-.16l-.26-.1-.06,0-.1,0Z"/><path class="cls-2" d="M91.77,54.08v22l-2.71,2.11-1.29-.36V53.24l3,.83a2,2,0,0,0,.53.08A1.49,1.49,0,0,0,91.77,54.08Z"/><path class="cls-2" d="M90.77,54.07l-3-.83V49.4a1.86,1.86,0,0,1,1.07,0l2.93.81v3.88a1.49,1.49,0,0,1-.47.07A2,2,0,0,1,90.77,54.07Z"/><path class="cls-2" d="M91.77,35.58v1l-.79.57a2,2,0,0,0,.72-1.08A2.24,2.24,0,0,0,91.77,35.58Z"/><path class="cls-2" d="M91.77,35.58a1.84,1.84,0,0,0,0-.33A1.84,1.84,0,0,1,91.77,35.58Z"/><path class="cls-2" d="M91.74,35.25a1.57,1.57,0,0,0-.08-.31A1.09,1.09,0,0,1,91.74,35.25Z"/><path class="cls-2" d="M91.66,34.94a1.39,1.39,0,0,0-.12-.28A1.39,1.39,0,0,1,91.66,34.94Z"/><path class="cls-2" d="M91.35,34.36a1.22,1.22,0,0,0-.15-.17A.8.8,0,0,1,91.35,34.36Z"/><path class="cls-2" d="M91.12,34.11a1.45,1.45,0,0,0-.23-.19A1.37,1.37,0,0,1,91.12,34.11Z"/><path class="cls-2" d="M90.88,33.92a1.35,1.35,0,0,0-.29-.16A1.4,1.4,0,0,1,90.88,33.92Z"/><path class="cls-2" d="M90.41,37.47a1.36,1.36,0,0,0,.3-.13A1.3,1.3,0,0,1,90.41,37.47Z"/><path class="cls-2" d="M90.1,37.55a1.57,1.57,0,0,0,.31-.08A1.57,1.57,0,0,1,90.1,37.55Z"/><path class="cls-2" d="M90.33,33.66l-.16,0,.1,0Z"/><path class="cls-2" d="M89.37,33.4l.8.22a1.75,1.75,0,0,0-.4,0,2,2,0,0,0-1.09.32Z"/><path class="cls-2" d="M89.08,37.46a2,2,0,0,1-.94-.71,2,2,0,0,1-.37-1.17,1.91,1.91,0,0,1,.12-.68.85.85,0,0,1,.09-.22,1.59,1.59,0,0,1,.13-.22,1.94,1.94,0,0,1,.49-.5l.08-.06a2,2,0,0,1,1.09-.32,1.75,1.75,0,0,1,.4,0l.16,0,.26.1a1.35,1.35,0,0,1,.29.16h0a1.45,1.45,0,0,1,.23.19.3.3,0,0,1,.08.08,1.22,1.22,0,0,1,.15.17,1.66,1.66,0,0,1,.19.3,1.39,1.39,0,0,1,.12.28,1.57,1.57,0,0,1,.08.31,1.84,1.84,0,0,1,0,.33,2.24,2.24,0,0,1-.07.51A2,2,0,0,1,91,37.17a1.78,1.78,0,0,1-.27.17,1.36,1.36,0,0,1-.3.13,1.57,1.57,0,0,1-.31.08,1.84,1.84,0,0,1-.33,0,1.79,1.79,0,0,1-.51-.07Z"/><path class="cls-2" d="M89.77,37.58a1.84,1.84,0,0,0,.33,0A1.84,1.84,0,0,1,89.77,37.58Z"/><path class="cls-2" d="M89.25,82.11a2,2,0,0,1-1.08-.71,2,2,0,0,1-.39-.9.76.76,0,0,1,0-.15V79.9a2,2,0,0,1,.75-1.3l.54-.42.24.07a2,2,0,0,1,0,3.86Z"/><path class="cls-2" d="M89.25,82.11a2,2,0,0,0,0-3.86l-.24-.07,2.71-2.11v4.28a1.92,1.92,0,0,1-.28,1l-.51.39a2,2,0,0,1-1.23.43A1.68,1.68,0,0,1,89.25,82.11Z"/><path class="cls-2" d="M89.77,37.58a1.79,1.79,0,0,1-.51-.07A1.79,1.79,0,0,0,89.77,37.58Z"/><path class="cls-2" d="M87.77,49.4V37.12l1.31.34.18,0a1.79,1.79,0,0,0,.51.07,1.84,1.84,0,0,0,.33,0,1.57,1.57,0,0,0,.31-.08,1.3,1.3,0,0,0,.3-.13,1.78,1.78,0,0,0,.27-.17l.79-.57V50.2l-2.93-.81A1.86,1.86,0,0,0,87.77,49.4Z"/><path class="cls-2" d="M89.75,82.18A2,2,0,0,0,91,81.75l.51-.39a2,2,0,0,1-2.57.8,1.26,1.26,0,0,0,.33,0A1.68,1.68,0,0,0,89.75,82.18Z"/><path class="cls-2" d="M88.17,81.4a2,2,0,0,0,1.08.71,1.26,1.26,0,0,1-.33,0,2,2,0,0,1-1.14-1.66A2,2,0,0,0,88.17,81.4Z"/><path class="cls-2" d="M89.08,37.46l-1.31-.34V35.58a2,2,0,0,0,.37,1.17A2,2,0,0,0,89.08,37.46Z"/><path class="cls-2" d="M89.06,78.18l-.54.42a2,2,0,0,0-.75,1.3V77.82Z"/><path class="cls-2" d="M88.11,34.46a1.8,1.8,0,0,1,.49-.5A1.94,1.94,0,0,0,88.11,34.46Z"/><path class="cls-2" d="M88,34.68a.85.85,0,0,0-.09.22A.85.85,0,0,1,88,34.68Z"/><path class="cls-2" d="M87.77,79.9v.45A1.69,1.69,0,0,1,87.77,79.9Z"/><path class="cls-1" d="M87.77,49.4v3.84a2,2,0,0,1-1.39-2.46A2,2,0,0,1,87.77,49.4Z"/><path class="cls-2" d="M87.77,37.12l-14.5-3.8A2,2,0,0,0,73.79,32V29.32L89.37,33.4l-.69.5L88.6,34a1.8,1.8,0,0,0-.49.5,1.59,1.59,0,0,0-.13.22.85.85,0,0,0-.09.22,1.91,1.91,0,0,0-.12.68Z"/><path class="cls-1" d="M82.84,47.73a2,2,0,0,1,1.39,2.46,1.75,1.75,0,0,1-.12.32,2,2,0,0,1-2.34,1.08l-3-.83a2,2,0,0,1,1.07-3.86Z"/><path class="cls-2" d="M72.48.1l45.65,13.36a2,2,0,0,0-1.55.35l-3.32,2.39L73.85,4.67V2a.86.86,0,0,0,0-.23s0-.09,0-.14a2.17,2.17,0,0,0-.07-.24,1.48,1.48,0,0,0-.12-.29,1.17,1.17,0,0,0-.17-.28.7.7,0,0,0-.16-.19s0,0,0,0a.86.86,0,0,0-.14-.13L72.93.31a.77.77,0,0,0-.18-.1Z"/><path class="cls-1" d="M71.32,48.7a2,2,0,0,1,1.07-3.85l1.45.39a2,2,0,0,1,1.39,2.46,1.75,1.75,0,0,1-.12.32,2,2,0,0,1-2.34,1.08Z"/><path class="cls-1" d="M73.86,2A2,2,0,0,1,73,3.61l-.8.59-.95-.28A2,2,0,0,1,69.86,2h0a2.46,2.46,0,0,1,0-.28,2,2,0,0,1,.05-.24,1.91,1.91,0,0,1,.52-.89A.91.91,0,0,1,70.66.4l.25-.16,0,0,.14-.06.19-.07h0l.16,0h.07a1.43,1.43,0,0,1,.29,0h.33l.15,0,.07,0h0l.06,0,.27.11.18.1.21.15c.06.06.12.11.17.17a1.46,1.46,0,0,1,.16.19,1.61,1.61,0,0,1,.17.28,1.48,1.48,0,0,1,.12.29,2.17,2.17,0,0,1,.07.24s0,.09,0,.14A.86.86,0,0,1,73.86,2Z"/><path class="cls-2" d="M73.84,1.77c0-.05,0-.1,0-.14S73.84,1.73,73.84,1.77Z"/><path class="cls-1" d="M73.84,11v3a2,2,0,1,1-4,0V11a2,2,0,0,1,2-2,2,2,0,0,1,1.42.59A2,2,0,0,1,73.84,11Z"/><path class="cls-1" d="M73.79,29.32V32a2,2,0,0,1-.52,1.32l-3.44-.9a2,2,0,0,1,0-.43V29a1.91,1.91,0,0,1,.13-.68Z"/><path class="cls-1" d="M71.78,36a2,2,0,0,1,2,2v3a2,2,0,0,1-2,2h0a2,2,0,0,1-2-2V38a2,2,0,0,1,2-2Z"/><path class="cls-1" d="M73.76,1.39a1.48,1.48,0,0,0-.12-.29A1.48,1.48,0,0,1,73.76,1.39Z"/><path class="cls-1" d="M73.64,1.1a1.61,1.61,0,0,0-.17-.28A1.17,1.17,0,0,1,73.64,1.1Z"/><path class="cls-1" d="M73,3.61A2,2,0,0,0,73.86,2V4.67L72.24,4.2Z"/><path class="cls-1" d="M73.47.82a1.46,1.46,0,0,0-.16-.19A.7.7,0,0,1,73.47.82Z"/><path class="cls-1" d="M73.28.59s0,0,0,0S73.2.52,73.14.46A.86.86,0,0,1,73.28.59Z"/><path class="cls-1" d="M71.8,25a2,2,0,0,1-2-2V20a2,2,0,0,1,2-2,2,2,0,0,1,2,2v3a2,2,0,0,1-2,2Z"/><path class="cls-1" d="M72.93.31l-.18-.1A.77.77,0,0,1,72.93.31Z"/><path class="cls-1" d="M69.83,32.42l3.44.9a1.94,1.94,0,0,1-1.48.68h0A2,2,0,0,1,69.83,32.42Z"/><path class="cls-1" d="M72.48.1l-.06,0Z"/><path class="cls-1" d="M72.37.07l-.07,0Z"/><path class="cls-1" d="M72.3.05l-.15,0Z"/><path class="cls-1" d="M72.24,4.2,70,5.81A2,2,0,0,1,69.85,5V2a2,2,0,0,0,1.43,1.92Z"/><path class="cls-1" d="M72.13,0h0Z"/><path class="cls-1" d="M71.85,7A2,2,0,0,1,70,5.81L72.24,4.2l1.61.47V5A2,2,0,0,1,71.85,7Z"/><path class="cls-1" d="M71.82,0a1.43,1.43,0,0,0-.29,0l.1,0Z"/><path class="cls-1" d="M73.79,29.32l-3.87-1A2,2,0,0,1,71.79,27h0a2,2,0,0,1,2,2Z"/><path class="cls-2" d="M71.63,0l-.1,0h-.07Z"/><path class="cls-2" d="M71.3.08h0Z"/><path class="cls-2" d="M71.27.09l-.19.07.16-.07Z"/><path class="cls-2" d="M71.08.16l-.14.06Z"/><path class="cls-2" d="M70.94.22l0,0Z"/><path class="cls-1" d="M70.66.4a.91.91,0,0,0-.21.18l.14-.13Z"/><path class="cls-2" d="M69.86,2h0V5a2,2,0,0,0,.17.82L47.33,22.4l-3.55-.93a1.9,1.9,0,0,0-1-.29,2,2,0,0,0-.73.14L70.59.45l-.14.13a1.91,1.91,0,0,0-.52.89,1.44,1.44,0,0,0-.05.24A2.46,2.46,0,0,0,69.86,2Z"/><path class="cls-1" d="M69.93,1.47a2,2,0,0,0-.05.24A1.44,1.44,0,0,1,69.93,1.47Z"/><path class="cls-1" d="M67.05,47.77a2,2,0,0,1,2.79.45c.06.09.12.18.17.27A2,2,0,0,1,69.39,51L67,52.77a2,2,0,0,1-1.17.38,2,2,0,0,1-1.62-.84,2,2,0,0,1,.45-2.79Z"/><path class="cls-1" d="M62.54,53.48a2,2,0,0,1-.46,2.79L59.65,58a2,2,0,0,1-1.17.37,2,2,0,0,1-1.62-.83,2,2,0,0,1,.45-2.79L59.75,53a2,2,0,0,1,1.62-.33A2.06,2.06,0,0,1,62.54,53.48Z"/><path class="cls-1" d="M50,60l2.43-1.75a2,2,0,0,1,2.79.45,2,2,0,0,1-.45,2.79l-2.44,1.76A2,2,0,1,1,50,60Z"/><path class="cls-1" d="M45.14,63.55a2,2,0,0,1,1.63-.33,2,2,0,0,1,1,3.29l-3-.85V63.83Z"/><path class="cls-2" d="M69.83,32.42,44.75,25.85V24.28l2.58-1.88,22.59,5.91a1.91,1.91,0,0,0-.13.68v3A2,2,0,0,0,69.83,32.42Z"/><path class="cls-2" d="M44.75,23.18a2,2,0,0,0-1-1.71l3.55.93-2.58,1.88Z"/><path class="cls-2" d="M42.87,65.18l1.88-1.35v1.83l-1.45-.41A1.61,1.61,0,0,0,42.87,65.18Z"/><path class="cls-1" d="M43.74,68.91a2,2,0,0,0,1-1.73V65.66l3,.85a1.67,1.67,0,0,1-.31.28L45,68.54a2,2,0,0,1-1.17.38Z"/><path class="cls-2" d="M44.75,67.18a2,2,0,0,1-1,1.73,2,2,0,0,1-1.49-.82,2,2,0,0,1,.45-2.79l.17-.12a1.61,1.61,0,0,1,.43.07l1.45.41Z"/><path class="cls-2" d="M41.64,24.92a1.3,1.3,0,0,1-.23-.18,1.5,1.5,0,0,1-.27-.29,2,2,0,0,1-.36-.85,1.63,1.63,0,0,1,0-.31v0a2.15,2.15,0,0,1,.07-.5,2.12,2.12,0,0,1,.28-.61,1.3,1.3,0,0,1,.18-.23,1.5,1.5,0,0,1,.29-.27,2,2,0,0,1,1.69-.32l.52.14a2,2,0,0,1,1,1.71v1.1l-.82.6a2,2,0,0,1-1.18.39l-.31,0h0l-.14,0A2,2,0,0,1,41.64,24.92Z"/><path class="cls-2" d="M43.26,21.33a2,2,0,0,0-1.69.32l.45-.33a2,2,0,0,1,.73-.14,1.9,1.9,0,0,1,1,.29Z"/><path class="cls-2" d="M42.75,25.27a2,2,0,0,0,1.18-.39l.82-.6v1.57l-2.31-.6Z"/><path class="cls-2" d="M43.87,68.92A2,2,0,0,0,45,68.54l2.43-1.75a1.67,1.67,0,0,0,.31-.28l40,11.31V79.9a1.69,1.69,0,0,0,0,.45.76.76,0,0,0,0,.15,2,2,0,0,0,1.14,1.66.5.5,0,0,1-.17,0,2,2,0,0,1-.54-.08L48,70.74l-5.65-1.6a1.75,1.75,0,0,0,.4,0,2,2,0,0,0,1-.27Z"/><path class="cls-2" d="M42.87,65.18a2,2,0,0,0-2,1.45,2,2,0,0,0-.08.54V23.29a1.63,1.63,0,0,0,0,.31,2,2,0,0,0,.36.85,1.5,1.5,0,0,0,.27.29,1.3,1.3,0,0,0,.23.18,1.78,1.78,0,0,0,.61.28l.14,0h0l2.31.6v38Z"/><path class="cls-2" d="M42.44,25.25h0Z"/><path class="cls-2" d="M42.25,25.2l.14,0Z"/><path class="cls-2" d="M41.89,69a1.75,1.75,0,0,0,.32.12A1.75,1.75,0,0,1,41.89,69Z"/><path class="cls-2" d="M41.64,24.92a2,2,0,0,0,.61.28A1.78,1.78,0,0,1,41.64,24.92Z"/><path class="cls-2" d="M41.64,68.84l.25.14A1.23,1.23,0,0,1,41.64,68.84Z"/><path class="cls-2" d="M40.83,66.63a2,2,0,0,1,2-1.45l-.17.12a2,2,0,0,0-.45,2.79,2,2,0,0,0,1.49.82,2,2,0,0,1-1,.27,1.75,1.75,0,0,1-.4,0l-.14,0a1.75,1.75,0,0,1-.32-.12l-.25-.14,0,0a1.49,1.49,0,0,1-.27-.23,1.24,1.24,0,0,1-.18-.21s0,0,0,0a.21.21,0,0,0,0-.06,1.74,1.74,0,0,1-.26-.53,1.31,1.31,0,0,1-.06-.27,1.73,1.73,0,0,1,0-.32h0A2,2,0,0,1,40.83,66.63Z"/><path class="cls-2" d="M41.61,68.82l0,0Z"/><path class="cls-2" d="M41.41,24.74a1.3,1.3,0,0,0,.23.18A1.3,1.3,0,0,1,41.41,24.74Z"/><path class="cls-2" d="M40.76,23A2,2,0,0,1,42,21.32l-.45.33a1.5,1.5,0,0,0-.29.27,1.3,1.3,0,0,0-.18.23,1.78,1.78,0,0,0-.28.61A1.31,1.31,0,0,0,40.76,23Z"/><path class="cls-2" d="M41.16,68.38a1.24,1.24,0,0,0,.18.21A1.68,1.68,0,0,1,41.16,68.38Z"/><path class="cls-2" d="M41.28,21.92a1.3,1.3,0,0,0-.18.23A1.3,1.3,0,0,1,41.28,21.92Z"/><path class="cls-2" d="M41.1,68.3a.21.21,0,0,1,0,.06Z"/><path class="cls-2" d="M41.1,22.15a2.12,2.12,0,0,0-.28.61A1.78,1.78,0,0,1,41.1,22.15Z"/><path class="cls-2" d="M40.78,67.5a1.31,1.31,0,0,0,.06.27A1.07,1.07,0,0,1,40.78,67.5Z"/><path class="cls-2" d="M40.76,23a1.31,1.31,0,0,1,.06-.27,2.15,2.15,0,0,0-.07.5v-.08A.76.76,0,0,1,40.76,23Z"/><path class="cls-2" d="M40.75,23.29a1.63,1.63,0,0,0,0,.31A1.63,1.63,0,0,1,40.75,23.29Z"/><path class="cls-2" d="M40.75,67.18a1.73,1.73,0,0,0,0,.32A1.66,1.66,0,0,1,40.75,67.18Z"/><path class="cls-3" d="M33.13,56.51C21.14,59.88,14,65.72,14,72.18,14,81,27.13,88.36,46.66,90.38c.67.09,1.34.15,2,.2l.8.06V79.89L60.14,88.7l2.54,2.1L71,97.68l-10.57,8.74-.21.17-2.41,2-8.31,6.88v-9.53l-.67-.07c-.66-.07-1.33-.13-2-.22l-.85-.12C21.32,102.29,3.5,90.43,3.5,77.18c0-10.83,11.9-20.94,30.42-26Z"/><path class="cls-2" d="M17.5,72.18c0,6.53,11.94,12.61,28.5,14.58V74.06l1.23-.58L63.83,87.2l.23.19,2.24,1.86,10.2,8.43-12.09,10-2.5,2.07-.21.17-14.47,12L46,121.3V109.06C18.88,105.57,0,92.52,0,77.18,0,64.47,13.52,52.85,34.48,47.5l.48-.13c.7-.18,1.41-.34,2.12-.5l1.07-.24-.47,3.17-.08.51-.78,5.23-.45,3,0,.09c-.07.15-.12.29-.17.41l-.14.36-1.7.45-.66.19-.52.16C23.34,63.18,17.5,67.65,17.5,72.18Zm-3.5,0c0-6.46,7.14-12.3,19.13-15.67l.79-5.28c-18.52,5-30.42,15.12-30.42,26,0,13.25,17.82,25.11,42.5,28.35l.85.12c.65.09,1.32.15,2,.22l.67.07v9.53l8.31-6.88,2.41-2,.21-.17L71,97.68,62.68,90.8l-2.54-2.1L49.5,79.89V90.64l-.8-.06c-.7,0-1.37-.11-2-.2C27.13,88.36,14,81,14,72.18Z"/></g></g></svg>